<svg xmlns="http://www.w3.org/2000/svg" viewBox="0 0 4.233 4.233"><g stroke-width=".374178" stroke-miterlimit="4" stroke-dasharray="none"><path d="m-73.722 2.874.04-.981c.005-.12.083-.2.207-.204l.978-.04" transform="matrix(0 .7071 -.7071 0 5.003 52.525)" fill="none" stroke="#9e9e9e" stroke-width=".374177" stroke-linecap="round" stroke-linejoin="round" stroke-miterlimit="4" stroke-dasharray="none" stroke-opacity="1" paint-order="markers fill stroke" class="stroke-000000"></path><path d="m-73.49 1.881 2.656 2.656" transform="matrix(0 .7071 -.7071 0 5.003 52.525)" fill="none" stroke="#9e9e9e" stroke-width=".374177" stroke-linecap="round" stroke-linejoin="round" stroke-miterlimit="4" stroke-dasharray="none" paint-order="markers fill stroke" class="stroke-000000"></path><path d="M-71.24 2.026h1.634c.414 0 .748.334.748.748v2.994a.747.747 0 0 1-.748.748H-72.6a.747.747 0 0 1-.748-.748V4.099" transform="matrix(0 .7071 -.7071 0 5.003 52.525)" fill="none" stroke="#9e9e9e" stroke-width=".374178" stroke-linecap="round" stroke-linejoin="round" stroke-miterlimit="4" stroke-dasharray="none" paint-order="markers fill stroke" class="stroke-000000"></path></g></svg>